<svg width="25" height="19" viewBox="0 0 25 19" fill="none" xmlns="http://www.w3.org/2000/svg">
<path d="M23.945 3.68125C23.8274 3.54601 23.6823 3.43754 23.5193 3.36315C23.3563 3.28876 23.1792 3.25018 23 3.25H5.72625L5.4825 1.795C5.43398 1.50312 5.28349 1.23792 5.05781 1.04657C4.83212 0.855226 4.54588 0.750136 4.25 0.75H1.4375C1.10598 0.75 0.788037 0.881696 0.553616 1.11612C0.319196 1.35054 0.1875 1.66848 0.1875 2C0.1875 2.33152 0.319196 2.64946 0.553616 2.88388C0.788037 3.1183 1.10598 3.25 1.4375 3.25H3.19125L5.51625 17.205L5.5725 17.36L5.64 17.5487L5.79 17.7725L5.90875 17.9125L6.15 18.075L6.29 18.1562C6.43537 18.217 6.59119 18.2489 6.74875 18.25H20.5C20.8315 18.25 21.1495 18.1183 21.3839 17.8839C21.6183 17.6495 21.75 17.3315 21.75 17C21.75 16.6685 21.6183 16.3505 21.3839 16.1161C21.1495 15.8817 20.8315 15.75 20.5 15.75H7.80875L7.60125 14.5H21.75C22.0508 14.5 22.3415 14.3916 22.5688 14.1946C22.7961 13.9976 22.9448 13.7252 22.9875 13.4275L24.2375 4.6775C24.2628 4.50018 24.2498 4.3195 24.1993 4.14764C24.1489 3.97578 24.0622 3.81674 23.945 3.68125ZM21.5588 5.75L21.2025 8.25H16.75V5.75H21.5588ZM15.5 5.75V8.25H11.75V5.75H15.5ZM15.5 9.5V12H11.75V9.5H15.5ZM10.5 5.75V8.25H6.75L6.565 8.2875L6.1425 5.75H10.5ZM6.7675 9.5H10.5V12H7.18375L6.7675 9.5ZM16.75 12V9.5H21.0225L20.6662 12H16.75Z" fill="#2192FF"/>
</svg>
