<svg width="21" height="21" viewBox="0 0 21 21" fill="none" xmlns="http://www.w3.org/2000/svg">
<path d="M18.9895 21L11.8458 13.855C10.313 14.9447 8.42679 15.4188 6.56094 15.1833C4.6951 14.9479 2.98582 14.02 1.77185 12.5836C0.557882 11.1473 -0.072163 9.3073 0.00658301 7.42831C0.085329 5.54931 0.867119 3.76848 2.19701 2.43874C3.52654 1.10843 5.30737 0.326202 7.1865 0.247117C9.06563 0.168032 10.9059 0.797861 12.3425 2.01176C13.7791 3.22565 14.7072 4.93501 14.9428 6.80099C15.1784 8.66696 14.7043 10.5534 13.6145 12.0862L20.7583 19.2312L18.9908 20.9987L18.9895 21ZM7.49951 2.74124C6.34958 2.74097 5.23471 3.13708 4.34274 3.86282C3.45076 4.58857 2.8362 5.59958 2.6026 6.72553C2.369 7.85148 2.53065 9.02353 3.0603 10.0442C3.58995 11.0649 4.45523 11.8718 5.51035 12.329C6.56548 12.7862 7.74595 12.8658 8.85287 12.5543C9.9598 12.2427 10.9255 11.5592 11.5873 10.6188C12.2491 9.6784 12.5665 8.53863 12.4861 7.39152C12.4057 6.24441 11.9323 5.16009 11.1458 4.32124L11.902 5.07124L11.0495 4.22124L11.0345 4.20624C10.5715 3.74036 10.0206 3.37098 9.41381 3.11951C8.80701 2.86803 8.15635 2.73946 7.49951 2.74124Z" fill="#CBE4DE"/>
</svg>
