<svg width="20" height="23" viewBox="0 0 20 23" fill="none" xmlns="http://www.w3.org/2000/svg">
<path d="M10 0C12.7625 0 15 2.2375 15 5C15 7.7625 12.7625 10 10 10C7.2375 10 5 7.7625 5 5C5 2.2375 7.2375 0 10 0ZM15 13.175C15 14.5 14.65 17.5875 12.2625 21.0375L11.25 15L12.425 12.65C11.65 12.5625 10.8375 12.5 10 12.5C9.1625 12.5 8.35 12.5625 7.575 12.65L8.75 15L7.7375 21.0375C5.35 17.5875 5 14.5 5 13.175C2.0125 14.05 0 15.625 0 17.5V22.5H20V17.5C20 15.625 18 14.05 15 13.175Z" fill="#2192FF"/>
</svg>
